{"accessors":[{"bufferView":0,"componentType":5126,"count":84,"max":[0.75,-0.25,0.75],"min":[-0.75,-0.5,-0.75],"normalized":false,"type":"VEC3"},{"bufferView":1,"componentType":5126,"count":84,"max":[1.0,0.125],"min":[0.75,0.0],"normalized":false,"type":"VEC2"},{"bufferView":2,"componentType":5121,"count":84,"max":[83],"min":[0],"normalized":false,"type":"SCALAR"}],"asset":{"copyright":"The Creators of 'FuckBrains'","generator":"GDRE Tools vv2.6.0-beta.4","version":"2.0"},"bufferViews":[{"buffer":0,"byteLength":1008,"byteStride":12,"target":34962},{"buffer":0,"byteLength":672,"byteOffset":1008,"byteStride":8,"target":34962},{"buffer":0,"byteLength":84,"byteOffset":1680,"target":34963},{"buffer":0,"byteLength":565,"byteOffset":1764}],"buffers":[{"byteLength":2329,"uri":"Rublik0.bin"}],"extensionsUsed":["GODOT_single_root"],"images":[{"bufferView":3,"mimeType":"image/png","name":"Rublik"}],"materials":[{"name":"Rublik","pbrMetallicRoughness":{"baseColorFactor":[1.0,1.0,1.0,1.0],"baseColorTexture":{"index":0},"metallicFactor":0.0,"roughnessFactor":1.0}}],"meshes":[{"name":"mesh","primitives":[{"attributes":{"POSITION":0,"TEXCOORD_0":1},"indices":2,"material":0,"mode":4}]}],"nodes":[{"children":[1],"name":"Rublik"},{"mesh":0,"name":"Mesh"}],"samplers":[{"magFilter":9728,"minFilter":9728,"wrapS":10497,"wrapT":10497}],"scene":0,"scenes":[{"name":"Rublik","nodes":[0]}],"textures":[{"sampler":0,"source":0}]}