{"accessors":[{"bufferView":0,"componentType":5126,"count":416,"max":[0.50068206,1.0176637,0.5006809],"min":[-0.50068206,-1.1641532e-09,-0.50068325],"normalized":false,"type":"VEC3"},{"bufferView":1,"componentType":5126,"count":416,"max":[1.0,0.92749643,0.9238942,1.0],"min":[0.033303548,-0.92747647,-0.9978308,-1.0],"normalized":false,"type":"VEC4"},{"bufferView":2,"componentType":5126,"count":416,"max":[0.9893271,1.0,0.94090873],"min":[-0.923888,-1.0,-0.9409226],"normalized":false,"type":"VEC3"},{"bufferView":3,"componentType":5126,"count":416,"max":[0.5848425,0.20078105],"min":[0.14637984,0.007113874],"normalized":false,"type":"VEC2"},{"bufferView":4,"componentType":5123,"count":621,"max":[415],"min":[0],"normalized":false,"type":"SCALAR"}],"asset":{"copyright":"The Creators of 'FuckBrains'","generator":"GDRE Tools vv2.6.0-beta.4","version":"2.0"},"bufferViews":[{"buffer":0,"byteLength":4992,"byteStride":12,"target":34962},{"buffer":0,"byteLength":6656,"byteOffset":4992,"byteStride":16,"target":34962},{"buffer":0,"byteLength":4992,"byteOffset":11648,"byteStride":12,"target":34962},{"buffer":0,"byteLength":3328,"byteOffset":16640,"byteStride":8,"target":34962},{"buffer":0,"byteLength":1242,"byteOffset":19968,"target":34963},{"buffer":0,"byteLength":13946,"byteOffset":21210}],"buffers":[{"byteLength":35156,"uri":"barrel_small0.bin"}],"extensionsUsed":["GODOT_single_root"],"images":[{"bufferView":5,"mimeType":"image/png","name":"dungeon_texture"}],"materials":[{"name":"texture","pbrMetallicRoughness":{"baseColorFactor":[1.0,1.0,1.0,1.0],"baseColorTexture":{"index":0},"metallicFactor":0.0,"roughnessFactor":0.45}}],"meshes":[{"name":"barrel_small","primitives":[{"attributes":{"NORMAL":2,"POSITION":0,"TANGENT":1,"TEXCOORD_0":3},"indices":4,"material":0,"mode":4}]}],"nodes":[{"children":[1],"name":"barrel_small2"},{"mesh":0,"name":"barrel_small"}],"samplers":[{"magFilter":9729,"minFilter":9987,"wrapS":10497,"wrapT":10497}],"scene":0,"scenes":[{"name":"barrel_small","nodes":[0]}],"textures":[{"sampler":0,"source":0}]}