{"accessors":[{"bufferView":0,"componentType":5126,"count":700,"max":[0.9,2.000001,0.90000033],"min":[-0.90000004,9.536743e-07,-0.89999956],"normalized":false,"type":"VEC3"},{"bufferView":1,"componentType":5126,"count":700,"max":[1.0,0.105315745,0.9941363,1.0],"min":[0.10813478,-0.10529475,-0.9941304,-1.0],"normalized":false,"type":"VEC4"},{"bufferView":2,"componentType":5126,"count":700,"max":[1.0,1.0,1.0],"min":[-1.0,-1.0,-1.0],"normalized":false,"type":"VEC3"},{"bufferView":3,"componentType":5126,"count":700,"max":[0.5994334,0.23340786],"min":[0.14097457,0.0071139336],"normalized":false,"type":"VEC2"},{"bufferView":4,"componentType":5123,"count":1683,"max":[699],"min":[0],"normalized":false,"type":"SCALAR"}],"asset":{"copyright":"The Creators of 'FuckBrains'","generator":"GDRE Tools vv2.6.0-beta.4","version":"2.0"},"bufferViews":[{"buffer":0,"byteLength":8400,"byteStride":12,"target":34962},{"buffer":0,"byteLength":11200,"byteOffset":8400,"byteStride":16,"target":34962},{"buffer":0,"byteLength":8400,"byteOffset":19600,"byteStride":12,"target":34962},{"buffer":0,"byteLength":5600,"byteOffset":28000,"byteStride":8,"target":34962},{"buffer":0,"byteLength":3366,"byteOffset":33600,"target":34963},{"buffer":0,"byteLength":13946,"byteOffset":36966}],"buffers":[{"byteLength":50912,"uri":"barrel_large0.bin"}],"extensionsUsed":["GODOT_single_root"],"images":[{"bufferView":5,"mimeType":"image/png","name":"dungeon_texture"}],"materials":[{"name":"texture","pbrMetallicRoughness":{"baseColorFactor":[1.0,1.0,1.0,1.0],"baseColorTexture":{"index":0},"metallicFactor":0.0,"roughnessFactor":0.45}}],"meshes":[{"name":"barrel_large","primitives":[{"attributes":{"NORMAL":2,"POSITION":0,"TANGENT":1,"TEXCOORD_0":3},"indices":4,"material":0,"mode":4}]}],"nodes":[{"children":[1],"name":"barrel_large2"},{"mesh":0,"name":"barrel_large"}],"samplers":[{"magFilter":9729,"minFilter":9987,"wrapS":10497,"wrapT":10497}],"scene":0,"scenes":[{"name":"barrel_large","nodes":[0]}],"textures":[{"sampler":0,"source":0}]}