{"accessors":[{"bufferView":0,"componentType":5126,"count":1926,"max":[1.8563223,1.7007953,1.5],"min":[-0.75,0.0,-1.5572475],"normalized":false,"type":"VEC3"},{"bufferView":1,"componentType":5126,"count":1926,"max":[1.0,0.9935006,1.0,1.0],"min":[-1.0,-0.9931082,-1.0,-1.0],"normalized":false,"type":"VEC4"},{"bufferView":2,"componentType":5126,"count":1926,"max":[1.0,1.0,1.0],"min":[-1.0,-1.0,-1.0],"normalized":false,"type":"VEC3"},{"bufferView":3,"componentType":5126,"count":1926,"max":[0.9494581,0.99245346],"min":[0.036565077,0.005040407],"normalized":false,"type":"VEC2"},{"bufferView":4,"componentType":5123,"count":4230,"max":[1925],"min":[0],"normalized":false,"type":"SCALAR"}],"asset":{"copyright":"The Creators of 'FuckBrains'","generator":"GDRE Tools vv2.6.0-beta.4","version":"2.0"},"bufferViews":[{"buffer":0,"byteLength":23112,"byteStride":12,"target":34962},{"buffer":0,"byteLength":30816,"byteOffset":23112,"byteStride":16,"target":34962},{"buffer":0,"byteLength":23112,"byteOffset":53928,"byteStride":12,"target":34962},{"buffer":0,"byteLength":15408,"byteOffset":77040,"byteStride":8,"target":34962},{"buffer":0,"byteLength":8460,"byteOffset":92448,"target":34963},{"buffer":0,"byteLength":13946,"byteOffset":100908}],"buffers":[{"byteLength":114854,"uri":"bed_decorated0.bin"}],"extensionsUsed":["GODOT_single_root"],"images":[{"bufferView":5,"mimeType":"image/png","name":"dungeon_texture"}],"materials":[{"name":"texture","pbrMetallicRoughness":{"baseColorFactor":[1.0,1.0,1.0,1.0],"baseColorTexture":{"index":0},"metallicFactor":0.0,"roughnessFactor":0.45}}],"meshes":[{"name":"bed_decorated","primitives":[{"attributes":{"NORMAL":2,"POSITION":0,"TANGENT":1,"TEXCOORD_0":3},"indices":4,"material":0,"mode":4}]}],"nodes":[{"children":[1],"name":"bed_decorated2"},{"mesh":0,"name":"bed_decorated"}],"samplers":[{"magFilter":9729,"minFilter":9987,"wrapS":10497,"wrapT":10497}],"scene":0,"scenes":[{"name":"bed_decorated","nodes":[0]}],"textures":[{"sampler":0,"source":0}]}