{"accessors":[{"bufferView":0,"componentType":5126,"count":320,"max":[0.75000006,1.5,0.75000006],"min":[-0.75,5.9604645e-08,-0.75000006],"normalized":false,"type":"VEC3"},{"bufferView":1,"componentType":5126,"count":320,"max":[1.0,0.8135436,0.98091584,1.0],"min":[-0.619167,-0.8135235,-0.98092747,-1.0],"normalized":false,"type":"VEC4"},{"bufferView":2,"componentType":5126,"count":320,"max":[1.0,1.0,1.0],"min":[-1.0,-1.0,-1.0],"normalized":false,"type":"VEC3"},{"bufferView":3,"componentType":5126,"count":320,"max":[0.59131783,0.22517657],"min":[0.13897586,0.019569755],"normalized":false,"type":"VEC2"},{"bufferView":4,"componentType":5123,"count":564,"max":[319],"min":[0],"normalized":false,"type":"SCALAR"}],"asset":{"copyright":"The Creators of 'FuckBrains'","generator":"GDRE Tools vv2.6.0-beta.4","version":"2.0"},"bufferViews":[{"buffer":0,"byteLength":3840,"byteStride":12,"target":34962},{"buffer":0,"byteLength":5120,"byteOffset":3840,"byteStride":16,"target":34962},{"buffer":0,"byteLength":3840,"byteOffset":8960,"byteStride":12,"target":34962},{"buffer":0,"byteLength":2560,"byteOffset":12800,"byteStride":8,"target":34962},{"buffer":0,"byteLength":1128,"byteOffset":15360,"target":34963},{"buffer":0,"byteLength":13946,"byteOffset":16488}],"buffers":[{"byteLength":30434,"uri":"box_large0.bin"}],"extensionsUsed":["GODOT_single_root"],"images":[{"bufferView":5,"mimeType":"image/png","name":"dungeon_texture"}],"materials":[{"name":"texture","pbrMetallicRoughness":{"baseColorFactor":[1.0,1.0,1.0,1.0],"baseColorTexture":{"index":0},"metallicFactor":0.0,"roughnessFactor":0.45}}],"meshes":[{"name":"box_large","primitives":[{"attributes":{"NORMAL":2,"POSITION":0,"TANGENT":1,"TEXCOORD_0":3},"indices":4,"material":0,"mode":4}]}],"nodes":[{"children":[1],"name":"box_large2"},{"mesh":0,"name":"box_large"}],"samplers":[{"magFilter":9729,"minFilter":9987,"wrapS":10497,"wrapT":10497}],"scene":0,"scenes":[{"name":"box_large","nodes":[0]}],"textures":[{"sampler":0,"source":0}]}