{"accessors":[{"bufferView":0,"componentType":5126,"count":91,"max":[0.16718553,0.872982,0.15952657],"min":[-0.16718556,0.0,-0.16976465],"normalized":false,"type":"VEC3"},{"bufferView":1,"componentType":5126,"count":91,"max":[1.0,0.1734881,0.9846332,1.0],"min":[-0.17365941,-0.17345849,-0.98482007,-1.0],"normalized":false,"type":"VEC4"},{"bufferView":2,"componentType":5126,"count":91,"max":[0.9848094,1.0,0.9396969],"min":[-0.9848094,-1.0,-1.0],"normalized":false,"type":"VEC3"},{"bufferView":3,"componentType":5126,"count":91,"max":[0.9494581,0.99245346],"min":[0.036565077,0.1688304],"normalized":false,"type":"VEC2"},{"bufferView":4,"componentType":5121,"count":198,"max":[90],"min":[0],"normalized":false,"type":"SCALAR"}],"asset":{"copyright":"The Creators of 'FuckBrains'","generator":"GDRE Tools vv2.6.0-beta.4","version":"2.0"},"bufferViews":[{"buffer":0,"byteLength":1092,"byteStride":12,"target":34962},{"buffer":0,"byteLength":1456,"byteOffset":1092,"byteStride":16,"target":34962},{"buffer":0,"byteLength":1092,"byteOffset":2548,"byteStride":12,"target":34962},{"buffer":0,"byteLength":728,"byteOffset":3640,"byteStride":8,"target":34962},{"buffer":0,"byteLength":198,"byteOffset":4368,"target":34963},{"buffer":0,"byteLength":13946,"byteOffset":4566}],"buffers":[{"byteLength":18512,"uri":"candle0.bin"}],"extensionsUsed":["GODOT_single_root"],"images":[{"bufferView":5,"mimeType":"image/png","name":"dungeon_texture"}],"materials":[{"name":"texture","pbrMetallicRoughness":{"baseColorFactor":[1.0,1.0,1.0,1.0],"baseColorTexture":{"index":0},"metallicFactor":0.0,"roughnessFactor":0.45}}],"meshes":[{"name":"candle","primitives":[{"attributes":{"NORMAL":2,"POSITION":0,"TANGENT":1,"TEXCOORD_0":3},"indices":4,"material":0,"mode":4}]}],"nodes":[{"children":[1],"name":"candle2"},{"mesh":0,"name":"candle"}],"samplers":[{"magFilter":9729,"minFilter":9987,"wrapS":10497,"wrapT":10497}],"scene":0,"scenes":[{"name":"candle","nodes":[0]}],"textures":[{"sampler":0,"source":0}]}