{"accessors":[{"bufferView":0,"componentType":5126,"count":506,"max":[0.37629315,1.2265056,0.37500766],"min":[-0.3737069,2.9802322e-08,-0.3750058],"normalized":false,"type":"VEC3"},{"bufferView":1,"componentType":5126,"count":506,"max":[1.0,0.9958301,1.0,1.0],"min":[-0.9869411,-0.9958286,-1.0,-1.0],"normalized":false,"type":"VEC4"},{"bufferView":2,"componentType":5126,"count":506,"max":[1.0,1.0,1.0],"min":[-1.0,-1.0,-1.0],"normalized":false,"type":"VEC3"},{"bufferView":3,"componentType":5126,"count":506,"max":[0.5928549,0.2137096],"min":[0.5127678,0.005040407],"normalized":false,"type":"VEC2"},{"bufferView":4,"componentType":5123,"count":882,"max":[505],"min":[0],"normalized":false,"type":"SCALAR"}],"asset":{"copyright":"The Creators of 'FuckBrains'","generator":"GDRE Tools vv2.6.0-beta.4","version":"2.0"},"bufferViews":[{"buffer":0,"byteLength":6072,"byteStride":12,"target":34962},{"buffer":0,"byteLength":8096,"byteOffset":6072,"byteStride":16,"target":34962},{"buffer":0,"byteLength":6072,"byteOffset":14168,"byteStride":12,"target":34962},{"buffer":0,"byteLength":4048,"byteOffset":20240,"byteStride":8,"target":34962},{"buffer":0,"byteLength":1764,"byteOffset":24288,"target":34963},{"buffer":0,"byteLength":13946,"byteOffset":26052}],"buffers":[{"byteLength":39998,"uri":"chair0.bin"}],"extensionsUsed":["GODOT_single_root"],"images":[{"bufferView":5,"mimeType":"image/png","name":"dungeon_texture"}],"materials":[{"name":"texture","pbrMetallicRoughness":{"baseColorFactor":[1.0,1.0,1.0,1.0],"baseColorTexture":{"index":0},"metallicFactor":0.0,"roughnessFactor":0.45}}],"meshes":[{"name":"chair","primitives":[{"attributes":{"NORMAL":2,"POSITION":0,"TANGENT":1,"TEXCOORD_0":3},"indices":4,"material":0,"mode":4}]}],"nodes":[{"children":[1],"name":"chair2"},{"mesh":0,"name":"chair"}],"samplers":[{"magFilter":9729,"minFilter":9987,"wrapS":10497,"wrapT":10497}],"scene":0,"scenes":[{"name":"chair","nodes":[0]}],"textures":[{"sampler":0,"source":0}]}