{"accessors":[{"bufferView":0,"componentType":5126,"count":1571,"max":[0.8,1.0406723,0.64580256],"min":[-0.8,-2.3841858e-07,-0.6000004],"normalized":false,"type":"VEC3"},{"bufferView":1,"componentType":5126,"count":1571,"max":[1.0,0.83967924,1.0,1.0],"min":[-0.99977547,-0.7919827,-0.99992955,-1.0],"normalized":false,"type":"VEC4"},{"bufferView":2,"componentType":5126,"count":1571,"max":[1.0,1.0,1.0],"min":[-1.0,-1.0,-1.0],"normalized":false,"type":"VEC3"},{"bufferView":3,"componentType":5126,"count":1571,"max":[0.98095435,0.7009671],"min":[0.13231163,0.065622985],"normalized":false,"type":"VEC2"},{"bufferView":4,"componentType":5123,"count":3318,"max":[1570],"min":[0],"normalized":false,"type":"SCALAR"},{"bufferView":5,"componentType":5126,"count":654,"max":[0.85,0.8,1.3106862],"min":[-0.85,-0.16500226,-0.13511756],"normalized":false,"type":"VEC3"},{"bufferView":6,"componentType":5126,"count":654,"max":[1.0,0.83967924,0.98050547,1.0],"min":[-0.15422636,-0.8261058,-0.98051226,-1.0],"normalized":false,"type":"VEC4"},{"bufferView":7,"componentType":5126,"count":654,"max":[1.0,0.9962307,1.0],"min":[-1.0,-1.0,-1.0],"normalized":false,"type":"VEC3"},{"bufferView":8,"componentType":5126,"count":654,"max":[0.54194623,0.22004718],"min":[0.16370048,0.02315098],"normalized":false,"type":"VEC2"},{"bufferView":9,"componentType":5123,"count":1386,"max":[653],"min":[0],"normalized":false,"type":"SCALAR"}],"asset":{"copyright":"The Creators of 'FuckBrains'","generator":"GDRE Tools vv2.6.0-beta.4","version":"2.0"},"bufferViews":[{"buffer":0,"byteLength":18852,"byteStride":12,"target":34962},{"buffer":0,"byteLength":25136,"byteOffset":18852,"byteStride":16,"target":34962},{"buffer":0,"byteLength":18852,"byteOffset":43988,"byteStride":12,"target":34962},{"buffer":0,"byteLength":12568,"byteOffset":62840,"byteStride":8,"target":34962},{"buffer":0,"byteLength":6636,"byteOffset":75408,"target":34963},{"buffer":0,"byteLength":7848,"byteOffset":82044,"byteStride":12,"target":34962},{"buffer":0,"byteLength":10464,"byteOffset":89892,"byteStride":16,"target":34962},{"buffer":0,"byteLength":7848,"byteOffset":100356,"byteStride":12,"target":34962},{"buffer":0,"byteLength":5232,"byteOffset":108204,"byteStride":8,"target":34962},{"buffer":0,"byteLength":2772,"byteOffset":113436,"target":34963},{"buffer":0,"byteLength":13946,"byteOffset":116208}],"buffers":[{"byteLength":130154,"uri":"chest_gold0.bin"}],"extensionsUsed":["GODOT_single_root"],"images":[{"bufferView":10,"mimeType":"image/png","name":"dungeon_texture"}],"materials":[{"name":"texture","pbrMetallicRoughness":{"baseColorFactor":[1.0,1.0,1.0,1.0],"baseColorTexture":{"index":0},"metallicFactor":0.0,"roughnessFactor":0.45}}],"meshes":[{"name":"chest_gold","primitives":[{"attributes":{"NORMAL":2,"POSITION":0,"TANGENT":1,"TEXCOORD_0":3},"indices":4,"material":0,"mode":4}]},{"name":"chest_gold_lid","primitives":[{"attributes":{"NORMAL":7,"POSITION":5,"TANGENT":6,"TEXCOORD_0":8},"indices":9,"material":0,"mode":4}]}],"nodes":[{"children":[1],"name":"chest_gold2"},{"children":[2],"mesh":0,"name":"chest_gold"},{"mesh":1,"name":"chest_gold_lid","translation":[0.0,0.5,-0.56488323]}],"samplers":[{"magFilter":9729,"minFilter":9987,"wrapS":10497,"wrapT":10497}],"scene":0,"scenes":[{"name":"chest_gold","nodes":[0]}],"textures":[{"sampler":0,"source":0}]}