{"accessors":[{"bufferView":0,"componentType":5126,"count":2315,"max":[0.99917954,2.1422918,1.0921534],"min":[-1.0900041,-4.049992e-06,-1.1572478],"normalized":false,"type":"VEC3"},{"bufferView":1,"componentType":5126,"count":2315,"max":[1.0,0.93974215,0.99857104,1.0],"min":[-0.9884316,-0.93972445,-0.9991133,-1.0],"normalized":false,"type":"VEC4"},{"bufferView":2,"componentType":5126,"count":2315,"max":[0.99710286,1.0,0.99710286],"min":[-0.99710566,-1.0,-0.9971016],"normalized":false,"type":"VEC3"},{"bufferView":3,"componentType":5126,"count":2315,"max":[0.84481835,0.48205197],"min":[0.13897586,0.0058846474],"normalized":false,"type":"VEC2"},{"bufferView":4,"componentType":5123,"count":3993,"max":[2314],"min":[0],"normalized":false,"type":"SCALAR"}],"asset":{"copyright":"The Creators of 'FuckBrains'","generator":"GDRE Tools vv2.6.0-beta.4","version":"2.0"},"bufferViews":[{"buffer":0,"byteLength":27780,"byteStride":12,"target":34962},{"buffer":0,"byteLength":37040,"byteOffset":27780,"byteStride":16,"target":34962},{"buffer":0,"byteLength":27780,"byteOffset":64820,"byteStride":12,"target":34962},{"buffer":0,"byteLength":18520,"byteOffset":92600,"byteStride":8,"target":34962},{"buffer":0,"byteLength":7986,"byteOffset":111120,"target":34963},{"buffer":0,"byteLength":13946,"byteOffset":119106}],"buffers":[{"byteLength":133052,"uri":"crates_stacked0.bin"}],"extensionsUsed":["GODOT_single_root"],"images":[{"bufferView":5,"mimeType":"image/png","name":"dungeon_texture"}],"materials":[{"name":"texture","pbrMetallicRoughness":{"baseColorFactor":[1.0,1.0,1.0,1.0],"baseColorTexture":{"index":0},"metallicFactor":0.0,"roughnessFactor":0.45}}],"meshes":[{"name":"crates_stacked","primitives":[{"attributes":{"NORMAL":2,"POSITION":0,"TANGENT":1,"TEXCOORD_0":3},"indices":4,"material":0,"mode":4}]}],"nodes":[{"children":[1],"name":"crates_stacked2"},{"mesh":0,"name":"crates_stacked"}],"samplers":[{"magFilter":9729,"minFilter":9987,"wrapS":10497,"wrapT":10497}],"scene":0,"scenes":[{"name":"crates_stacked","nodes":[0]}],"textures":[{"sampler":0,"source":0}]}