{"accessors":[{"bufferView":0,"componentType":5126,"count":334,"max":[0.4851145,0.236106,0.48473278],"min":[-0.48546198,8.382642e-07,-0.48584378],"normalized":false,"type":"VEC3"},{"bufferView":1,"componentType":5126,"count":334,"max":[1.0,0.98662204,1.0,1.0],"min":[-1.0,-0.98224795,-0.9396827,-1.0],"normalized":false,"type":"VEC4"},{"bufferView":2,"componentType":5126,"count":334,"max":[0.9971732,1.0,0.9971719],"min":[-0.99943835,-1.0,-0.99717593],"normalized":false,"type":"VEC3"},{"bufferView":3,"componentType":5126,"count":334,"max":[0.703883,0.74615705],"min":[0.022159502,0.058096886],"normalized":false,"type":"VEC2"},{"bufferView":4,"componentType":5123,"count":918,"max":[333],"min":[0],"normalized":false,"type":"SCALAR"}],"asset":{"copyright":"The Creators of 'FuckBrains'","generator":"GDRE Tools vv2.6.0-beta.4","version":"2.0"},"bufferViews":[{"buffer":0,"byteLength":4008,"byteStride":12,"target":34962},{"buffer":0,"byteLength":5344,"byteOffset":4008,"byteStride":16,"target":34962},{"buffer":0,"byteLength":4008,"byteOffset":9352,"byteStride":12,"target":34962},{"buffer":0,"byteLength":2672,"byteOffset":13360,"byteStride":8,"target":34962},{"buffer":0,"byteLength":1836,"byteOffset":16032,"target":34963},{"buffer":0,"byteLength":13946,"byteOffset":17868}],"buffers":[{"byteLength":31814,"uri":"plate_food_B0.bin"}],"extensionsUsed":["GODOT_single_root"],"images":[{"bufferView":5,"mimeType":"image/png","name":"dungeon_texture"}],"materials":[{"name":"texture","pbrMetallicRoughness":{"baseColorFactor":[1.0,1.0,1.0,1.0],"baseColorTexture":{"index":0},"metallicFactor":0.0,"roughnessFactor":0.45}}],"meshes":[{"name":"plate_food_B","primitives":[{"attributes":{"NORMAL":2,"POSITION":0,"TANGENT":1,"TEXCOORD_0":3},"indices":4,"material":0,"mode":4}]}],"nodes":[{"children":[1],"name":"plate_food_B2"},{"mesh":0,"name":"plate_food_B"}],"samplers":[{"magFilter":9729,"minFilter":9987,"wrapS":10497,"wrapT":10497}],"scene":0,"scenes":[{"name":"plate_food_B","nodes":[0]}],"textures":[{"sampler":0,"source":0}]}