{"accessors":[{"bufferView":0,"componentType":5126,"count":142,"max":[1.0,0.09999943,0.5],"min":[-1.0,-0.35000038,0.0],"normalized":false,"type":"VEC3"},{"bufferView":1,"componentType":5126,"count":142,"max":[1.0,0.5109618,0.61570966,1.0],"min":[-1.0,-0.51989114,-0.6090355,-1.0],"normalized":false,"type":"VEC4"},{"bufferView":2,"componentType":5126,"count":142,"max":[1.0,1.0,1.0],"min":[-1.0,-1.0,-1.0],"normalized":false,"type":"VEC3"},{"bufferView":3,"componentType":5126,"count":142,"max":[0.5992878,0.20677942],"min":[0.5146022,0.06941295],"normalized":false,"type":"VEC2"},{"bufferView":4,"componentType":5121,"count":228,"max":[141],"min":[0],"normalized":false,"type":"SCALAR"}],"asset":{"copyright":"The Creators of 'FuckBrains'","generator":"GDRE Tools vv2.6.0-beta.4","version":"2.0"},"bufferViews":[{"buffer":0,"byteLength":1704,"byteStride":12,"target":34962},{"buffer":0,"byteLength":2272,"byteOffset":1704,"byteStride":16,"target":34962},{"buffer":0,"byteLength":1704,"byteOffset":3976,"byteStride":12,"target":34962},{"buffer":0,"byteLength":1136,"byteOffset":5680,"byteStride":8,"target":34962},{"buffer":0,"byteLength":228,"byteOffset":6816,"target":34963},{"buffer":0,"byteLength":13946,"byteOffset":7044}],"buffers":[{"byteLength":20990,"uri":"shelf_large0.bin"}],"extensionsUsed":["GODOT_single_root"],"images":[{"bufferView":5,"mimeType":"image/png","name":"dungeon_texture"}],"materials":[{"name":"texture","pbrMetallicRoughness":{"baseColorFactor":[1.0,1.0,1.0,1.0],"baseColorTexture":{"index":0},"metallicFactor":0.0,"roughnessFactor":0.45}}],"meshes":[{"name":"shelf_large","primitives":[{"attributes":{"NORMAL":2,"POSITION":0,"TANGENT":1,"TEXCOORD_0":3},"indices":4,"material":0,"mode":4}]}],"nodes":[{"children":[1],"name":"shelf_large2"},{"mesh":0,"name":"shelf_large"}],"samplers":[{"magFilter":9729,"minFilter":9987,"wrapS":10497,"wrapT":10497}],"scene":0,"scenes":[{"name":"shelf_large","nodes":[0]}],"textures":[{"sampler":0,"source":0}]}