{"accessors":[{"bufferView":0,"componentType":5126,"count":348,"max":[0.49918106,1.0,0.49979943],"min":[-0.500819,0.0,-0.50020057],"normalized":false,"type":"VEC3"},{"bufferView":1,"componentType":5126,"count":348,"max":[1.0,0.9926229,1.0,1.0],"min":[-1.0,-0.9926197,-1.0,-1.0],"normalized":false,"type":"VEC4"},{"bufferView":2,"componentType":5126,"count":348,"max":[1.0,1.0,1.0],"min":[-1.0,-1.0,-1.0],"normalized":false,"type":"VEC3"},{"bufferView":3,"componentType":5126,"count":348,"max":[0.5928549,0.2137096],"min":[0.5127678,0.005040407],"normalized":false,"type":"VEC2"},{"bufferView":4,"componentType":5123,"count":576,"max":[347],"min":[0],"normalized":false,"type":"SCALAR"}],"asset":{"copyright":"The Creators of 'FuckBrains'","generator":"GDRE Tools vv2.6.0-beta.4","version":"2.0"},"bufferViews":[{"buffer":0,"byteLength":4176,"byteStride":12,"target":34962},{"buffer":0,"byteLength":5568,"byteOffset":4176,"byteStride":16,"target":34962},{"buffer":0,"byteLength":4176,"byteOffset":9744,"byteStride":12,"target":34962},{"buffer":0,"byteLength":2784,"byteOffset":13920,"byteStride":8,"target":34962},{"buffer":0,"byteLength":1152,"byteOffset":16704,"target":34963},{"buffer":0,"byteLength":13946,"byteOffset":17856}],"buffers":[{"byteLength":31802,"uri":"table_small0.bin"}],"extensionsUsed":["GODOT_single_root"],"images":[{"bufferView":5,"mimeType":"image/png","name":"dungeon_texture"}],"materials":[{"name":"texture","pbrMetallicRoughness":{"baseColorFactor":[1.0,1.0,1.0,1.0],"baseColorTexture":{"index":0},"metallicFactor":0.0,"roughnessFactor":0.45}}],"meshes":[{"name":"table_small","primitives":[{"attributes":{"NORMAL":2,"POSITION":0,"TANGENT":1,"TEXCOORD_0":3},"indices":4,"material":0,"mode":4}]}],"nodes":[{"children":[1],"name":"table_small2"},{"mesh":0,"name":"table_small"}],"samplers":[{"magFilter":9729,"minFilter":9987,"wrapS":10497,"wrapT":10497}],"scene":0,"scenes":[{"name":"table_small","nodes":[0]}],"textures":[{"sampler":0,"source":0}]}