{"accessors":[{"bufferView":0,"componentType":5126,"count":476,"max":[1.0,1.0,2.0000005],"min":[-1.0000004,8.195639e-08,-2.0],"normalized":false,"type":"VEC3"},{"bufferView":1,"componentType":5126,"count":476,"max":[1.0,0.5978984,1.0,1.0],"min":[-0.22986965,-0.45746663,-1.0,-1.0],"normalized":false,"type":"VEC4"},{"bufferView":2,"componentType":5126,"count":476,"max":[1.0,1.0,1.0],"min":[-1.0,-1.0,-1.0],"normalized":false,"type":"VEC3"},{"bufferView":3,"componentType":5126,"count":476,"max":[0.59730434,0.21370965],"min":[0.5083187,0.005040407],"normalized":false,"type":"VEC2"},{"bufferView":4,"componentType":5123,"count":840,"max":[475],"min":[0],"normalized":false,"type":"SCALAR"}],"asset":{"copyright":"The Creators of 'FuckBrains'","generator":"GDRE Tools vv2.6.0-beta.4","version":"2.0"},"bufferViews":[{"buffer":0,"byteLength":5712,"byteStride":12,"target":34962},{"buffer":0,"byteLength":7616,"byteOffset":5712,"byteStride":16,"target":34962},{"buffer":0,"byteLength":5712,"byteOffset":13328,"byteStride":12,"target":34962},{"buffer":0,"byteLength":3808,"byteOffset":19040,"byteStride":8,"target":34962},{"buffer":0,"byteLength":1680,"byteOffset":22848,"target":34963},{"buffer":0,"byteLength":13946,"byteOffset":24528}],"buffers":[{"byteLength":38474,"uri":"table_long0.bin"}],"extensionsUsed":["GODOT_single_root"],"images":[{"bufferView":5,"mimeType":"image/png","name":"dungeon_texture"}],"materials":[{"name":"texture","pbrMetallicRoughness":{"baseColorFactor":[1.0,1.0,1.0,1.0],"baseColorTexture":{"index":0},"metallicFactor":0.0,"roughnessFactor":0.45}}],"meshes":[{"name":"table_long","primitives":[{"attributes":{"NORMAL":2,"POSITION":0,"TANGENT":1,"TEXCOORD_0":3},"indices":4,"material":0,"mode":4}]}],"nodes":[{"children":[1],"name":"table_long2"},{"mesh":0,"name":"table_long"}],"samplers":[{"magFilter":9729,"minFilter":9987,"wrapS":10497,"wrapT":10497}],"scene":0,"scenes":[{"name":"table_long","nodes":[0]}],"textures":[{"sampler":0,"source":0}]}